<svg width="16" height="16" viewBox="0 0 16 16" fill="none" xmlns="http://www.w3.org/2000/svg">
<g id="InstagramLogo">
<path id="Vector" d="M8 10.5001C9.38071 10.5001 10.5 9.38083 10.5 8.00012C10.5 6.61941 9.38071 5.50012 8 5.50012C6.61929 5.50012 5.5 6.61941 5.5 8.00012C5.5 9.38083 6.61929 10.5001 8 10.5001Z" stroke="white" stroke-miterlimit="10"/>
<path id="Vector_2" d="M11 2.00012H5C3.34315 2.00012 2 3.34327 2 5.00012V11.0001C2 12.657 3.34315 14.0001 5 14.0001H11C12.6569 14.0001 14 12.657 14 11.0001V5.00012C14 3.34327 12.6569 2.00012 11 2.00012Z" stroke="white" stroke-linecap="round" stroke-linejoin="round"/>
<path id="Vector_3" d="M11.5 4.75012C11.5 4.88819 11.3881 5.00012 11.25 5.00012C11.1119 5.00012 11 4.88819 11 4.75012C11 4.61205 11.1119 4.50012 11.25 4.50012C11.3881 4.50012 11.5 4.61205 11.5 4.75012Z" fill="white" stroke="white"/>
</g>
</svg>
