<svg width="16" height="16" viewBox="0 0 16 16" fill="none" xmlns="http://www.w3.org/2000/svg">
<g id="LinkedinLogo" clip-path="url(#clip0_5360_21)">
<path id="Vector" d="M13.5 2.00012H2.5C2.22386 2.00012 2 2.22398 2 2.50012V13.5001C2 13.7763 2.22386 14.0001 2.5 14.0001H13.5C13.7761 14.0001 14 13.7763 14 13.5001V2.50012C14 2.22398 13.7761 2.00012 13.5 2.00012Z" stroke="white" stroke-linecap="round" stroke-linejoin="round"/>
<path id="Vector_2" d="M7.5 7.00012V11.0001" stroke="white" stroke-linecap="round" stroke-linejoin="round"/>
<path id="Vector_3" d="M5.5 7.00012V11.0001" stroke="white" stroke-linecap="round" stroke-linejoin="round"/>
<path id="Vector_4" d="M7.5 8.75012C7.5 8.28599 7.68437 7.84087 8.01256 7.51269C8.34075 7.1845 8.78587 7.00012 9.25 7.00012C9.71413 7.00012 10.1592 7.1845 10.4874 7.51269C10.8156 7.84087 11 8.28599 11 8.75012V11.0001" stroke="white" stroke-linecap="round" stroke-linejoin="round"/>
<path id="Vector_5" d="M5.75 5.25012C5.75 5.38819 5.63807 5.50012 5.5 5.50012C5.36193 5.50012 5.25 5.38819 5.25 5.25012C5.25 5.11205 5.36193 5.00012 5.5 5.00012C5.63807 5.00012 5.75 5.11205 5.75 5.25012Z" fill="white" stroke="white"/>
</g>
<defs>
<clipPath id="clip0_5360_21">
<rect width="16" height="16" fill="white"/>
</clipPath>
</defs>
</svg>
