<svg width="121" height="22" viewBox="0 0 121 22" fill="none" xmlns="http://www.w3.org/2000/svg">
<path d="M11 22C17.0753 22 22 17.0753 22 11V3.3C22 2.42479 21.6523 1.58542 21.0335 0.966548C20.4146 0.347677 19.5752 0 18.7 0H11.55V4.8257C11.55 5.9268 11.6171 7.0675 12.1946 8.0047C12.6081 8.67636 13.1611 9.25125 13.8163 9.69034C14.4715 10.1294 15.2134 10.4225 15.9918 10.5496L16.2025 10.5836C16.2893 10.6133 16.3647 10.6694 16.4181 10.7441C16.4715 10.8187 16.5002 10.9082 16.5002 11C16.5002 11.0918 16.4715 11.1813 16.4181 11.2559C16.3647 11.3306 16.2893 11.3867 16.2025 11.4163L15.9918 11.4505C14.8545 11.6362 13.8043 12.1746 12.9894 12.9894C12.1746 13.8043 11.6363 14.8545 11.4505 15.9918L11.4164 16.2025C11.3867 16.2893 11.3306 16.3647 11.2559 16.4181C11.1813 16.4714 11.0918 16.5001 11 16.5001C10.9082 16.5001 10.8188 16.4714 10.7441 16.4181C10.6695 16.3647 10.6134 16.2893 10.5837 16.2025L10.5496 15.9918C10.4225 15.2134 10.1294 14.4715 9.69032 13.8163C9.25123 13.1611 8.67637 12.6081 8.00473 12.1946C7.06753 11.6171 5.92683 11.55 4.82573 11.55H0.0132263C0.300876 17.3695 5.10953 22 11 22Z" fill="#EEEEEE"/>
<path d="M0 10.4501H4.8257C5.9268 10.4501 7.0675 10.383 8.0047 9.80547C8.73731 9.35408 9.35401 8.73738 9.8054 8.00477C10.3829 7.06757 10.45 5.92687 10.45 4.82577V6.64739e-05H3.3C2.42479 6.64739e-05 1.58542 0.347744 0.966548 0.966614C0.347678 1.58548 0 2.42485 0 3.30007V10.4501Z" fill="#EEEEEE"/>
<path d="M35.5781 8.34801C35.5099 7.7429 35.2287 7.27415 34.7344 6.94176C34.2401 6.60511 33.6179 6.43679 32.8679 6.43679C32.331 6.43679 31.8665 6.52202 31.4744 6.69247C31.0824 6.85866 30.7777 7.08878 30.5604 7.38281C30.3473 7.67258 30.2408 8.00284 30.2408 8.37358C30.2408 8.68466 30.3132 8.95312 30.4581 9.17898C30.6072 9.40483 30.8011 9.59446 31.0398 9.74787C31.2827 9.89702 31.5426 10.0227 31.8196 10.125C32.0966 10.223 32.3629 10.304 32.6186 10.3679L33.897 10.7003C34.3146 10.8026 34.7429 10.9411 35.1818 11.1158C35.6207 11.2905 36.0277 11.5206 36.4027 11.8061C36.7777 12.0916 37.0803 12.4453 37.3104 12.8672C37.5447 13.2891 37.6619 13.794 37.6619 14.3821C37.6619 15.1236 37.4702 15.782 37.0866 16.3572C36.7074 16.9325 36.1555 17.3864 35.4311 17.7188C34.7109 18.0511 33.8395 18.2173 32.8168 18.2173C31.8366 18.2173 30.9886 18.0618 30.2727 17.7507C29.5568 17.4396 28.9964 16.9986 28.5916 16.4276C28.1868 15.8523 27.9631 15.1705 27.9205 14.3821H29.902C29.9403 14.8551 30.0938 15.2493 30.3622 15.5646C30.6349 15.8757 30.9822 16.108 31.4041 16.2614C31.8303 16.4105 32.2969 16.4851 32.804 16.4851C33.3622 16.4851 33.8587 16.3977 34.2933 16.223C34.7322 16.044 35.0774 15.7969 35.3288 15.4815C35.5803 15.1619 35.706 14.7891 35.706 14.3629C35.706 13.9751 35.5952 13.6577 35.3736 13.4105C35.1563 13.1634 34.8601 12.9588 34.4851 12.7969C34.1143 12.6349 33.6946 12.4922 33.2259 12.3686L31.679 11.9467C30.6307 11.6612 29.7997 11.2415 29.1861 10.6875C28.5767 10.1335 28.272 9.40057 28.272 8.48864C28.272 7.73437 28.4766 7.07599 28.8857 6.51349C29.2947 5.95099 29.8487 5.5142 30.5476 5.20312C31.2464 4.88778 32.0348 4.73011 32.9126 4.73011C33.799 4.73011 34.581 4.88565 35.2585 5.19673C35.9403 5.50781 36.4773 5.93608 36.8693 6.48153C37.2614 7.02273 37.4659 7.64489 37.483 8.34801H35.5781ZM44.1003 18.1982C43.133 18.1982 42.2999 17.9915 41.601 17.5781C40.9064 17.1605 40.3695 16.5746 39.9902 15.8203C39.6152 15.0618 39.4277 14.1733 39.4277 13.1548C39.4277 12.1491 39.6152 11.2628 39.9902 10.4957C40.3695 9.72869 40.8979 9.12997 41.5755 8.69957C42.2573 8.26918 43.0542 8.05398 43.9661 8.05398C44.5201 8.05398 45.057 8.1456 45.5769 8.32884C46.0968 8.51207 46.5634 8.79972 46.9767 9.19176C47.3901 9.58381 47.7161 10.093 47.9547 10.7195C48.1934 11.3416 48.3127 12.098 48.3127 12.9886V13.6662H40.508V12.2344H46.4398C46.4398 11.7315 46.3375 11.2862 46.133 10.8984C45.9284 10.5064 45.6408 10.1974 45.2701 9.97159C44.9036 9.74574 44.4732 9.63281 43.9789 9.63281C43.4419 9.63281 42.9732 9.76491 42.5726 10.0291C42.1763 10.2891 41.8695 10.63 41.6522 11.0518C41.4391 11.4695 41.3326 11.9233 41.3326 12.4134V13.532C41.3326 14.1882 41.4476 14.7464 41.6777 15.2067C41.9121 15.6669 42.2381 16.0185 42.6557 16.2614C43.0733 16.5 43.5613 16.6193 44.1195 16.6193C44.4817 16.6193 44.812 16.5682 45.1103 16.4659C45.4086 16.3594 45.6664 16.2017 45.8837 15.9929C46.101 15.7841 46.2672 15.5263 46.3823 15.2195L48.1912 15.5455C48.0463 16.0781 47.7864 16.5447 47.4114 16.9453C47.0407 17.3416 46.574 17.6506 46.0115 17.8722C45.4533 18.0895 44.8162 18.1982 44.1003 18.1982ZM52.3445 12.1705V18H50.4332V8.18182H52.2678V9.77983H52.3892C52.6151 9.25994 52.9688 8.84233 53.4503 8.52699C53.9361 8.21165 54.5476 8.05398 55.2848 8.05398C55.9538 8.05398 56.5398 8.1946 57.0426 8.47585C57.5455 8.75284 57.9354 9.16619 58.2124 9.71591C58.4893 10.2656 58.6278 10.9453 58.6278 11.755V18H56.7166V11.9851C56.7166 11.2734 56.5313 10.7173 56.1605 10.3168C55.7898 9.91193 55.2805 9.70952 54.6328 9.70952C54.1896 9.70952 53.7955 9.8054 53.4503 9.99716C53.1094 10.1889 52.8388 10.4702 52.6385 10.8409C52.4425 11.2074 52.3445 11.6506 52.3445 12.1705ZM65.7741 8.18182V9.71591H60.4112V8.18182H65.7741ZM61.8494 5.82955H63.7607V15.1172C63.7607 15.4879 63.8161 15.767 63.9268 15.9545C64.0376 16.1378 64.1804 16.2635 64.3551 16.3317C64.5341 16.3956 64.728 16.4276 64.9368 16.4276C65.0902 16.4276 65.2244 16.4169 65.3395 16.3956C65.4545 16.3743 65.544 16.3572 65.608 16.3445L65.9531 17.9233C65.8423 17.9659 65.6847 18.0085 65.4801 18.0511C65.2756 18.098 65.0199 18.1236 64.7131 18.1278C64.2102 18.1364 63.7415 18.0469 63.3068 17.8594C62.8722 17.6719 62.5206 17.3821 62.2521 16.9901C61.9837 16.598 61.8494 16.1058 61.8494 15.5135V5.82955ZM67.8883 18V8.18182H69.7356V9.74148H69.8379C70.0169 9.21307 70.3322 8.79758 70.7839 8.49503C71.2399 8.18821 71.7555 8.0348 72.3308 8.0348C72.4501 8.0348 72.5907 8.03906 72.7527 8.04759C72.9189 8.05611 73.0488 8.06676 73.1426 8.07955V9.90767C73.0659 9.88636 72.9295 9.86293 72.7335 9.83736C72.5375 9.80753 72.3414 9.79261 72.1454 9.79261C71.6937 9.79261 71.291 9.88849 70.9373 10.0803C70.5879 10.2678 70.3109 10.5298 70.1064 10.8665C69.9018 11.1989 69.7995 11.5781 69.7995 12.0043V18H67.8883ZM77.5659 18.2173C76.9437 18.2173 76.3812 18.1023 75.8784 17.8722C75.3755 17.6378 74.9771 17.299 74.6831 16.8558C74.3933 16.4126 74.2484 15.8693 74.2484 15.2259C74.2484 14.6719 74.3549 14.2159 74.568 13.858C74.7811 13.5 75.0687 13.2166 75.4309 13.0078C75.7931 12.799 76.198 12.6413 76.6454 12.5348C77.0929 12.4283 77.5488 12.3473 78.0133 12.2919C78.6014 12.2237 79.0787 12.1683 79.4451 12.1257C79.8116 12.0788 80.0779 12.0043 80.2441 11.902C80.4103 11.7997 80.4934 11.6335 80.4934 11.4034V11.3587C80.4934 10.8004 80.3358 10.3679 80.0204 10.0611C79.7093 9.75426 79.2449 9.60085 78.627 9.60085C77.9835 9.60085 77.4764 9.74361 77.1056 10.0291C76.7392 10.3104 76.4856 10.6236 76.345 10.9688L74.5488 10.5597C74.7619 9.96307 75.073 9.48153 75.4821 9.11506C75.8954 8.74432 76.3706 8.47585 76.9075 8.30966C77.4444 8.1392 78.0091 8.05398 78.6014 8.05398C78.9934 8.05398 79.4089 8.10085 79.8478 8.1946C80.291 8.28409 80.7044 8.45028 81.0879 8.69318C81.4757 8.93608 81.7931 9.28338 82.0403 9.73509C82.2875 10.1825 82.411 10.7642 82.411 11.4801V18H80.5446V16.6577H80.4679C80.3443 16.9048 80.1589 17.1477 79.9118 17.3864C79.6646 17.625 79.3471 17.8232 78.9593 17.9808C78.5716 18.1385 78.1071 18.2173 77.5659 18.2173ZM77.9814 16.6832C78.5098 16.6832 78.9615 16.5788 79.3365 16.37C79.7157 16.1612 80.0034 15.8885 80.1994 15.5518C80.3997 15.2109 80.4998 14.8466 80.4998 14.4588V13.1932C80.4316 13.2614 80.2995 13.3253 80.1035 13.3849C79.9118 13.4403 79.6923 13.4893 79.4451 13.532C79.198 13.5703 78.9572 13.6065 78.7228 13.6406C78.4885 13.6705 78.2924 13.696 78.1348 13.7173C77.764 13.7642 77.4252 13.843 77.1184 13.9538C76.8159 14.0646 76.573 14.2244 76.3897 14.4332C76.2108 14.6378 76.1213 14.9105 76.1213 15.2514C76.1213 15.7244 76.296 16.0824 76.6454 16.3253C76.9949 16.5639 77.4402 16.6832 77.9814 16.6832Z" fill="white"/>
</svg>
