<svg width="161" height="26" viewBox="0 0 161 26" fill="none" xmlns="http://www.w3.org/2000/svg">
<path fill-rule="evenodd" clip-rule="evenodd" d="M11.9257 0H14.1214C15.2666 0.096755 16.3708 0.343244 17.4143 0.719869C18.1266 4.72591 21.2721 7.87045 25.2786 8.58145C25.6502 9.60945 25.8948 10.6966 25.9951 11.8237V14.1292C25.8918 15.2927 25.6345 16.4136 25.2427 17.4709C21.2863 18.1883 18.1762 21.28 17.4322 25.2267C16.0537 25.7266 14.5691 26 13.0236 26C11.4367 26 9.91404 25.7119 8.50461 25.1862C7.7541 21.2955 4.70243 18.243 0.812211 17.4911C0.287525 16.0829 0 14.5617 0 12.9765C0 11.4286 0.274139 9.94179 0.775483 8.56164C4.71644 7.81571 7.80342 4.71021 8.52289 0.759754C9.59857 0.360436 10.7402 0.100164 11.9257 0ZM14.6901 14.6554L14.6577 14.6749L12.9975 20.8771L11.3675 14.7873L11.3077 14.6874L11.2132 14.6308L5.12046 13L11.3181 11.3411L11.3453 11.2955L12.9975 5.12293L14.6608 11.3368L20.8746 13L14.6901 14.6554Z" fill="white"/>
<path fill-rule="evenodd" clip-rule="evenodd" d="M11.5706 0H13.7009C14.812 0.0938646 15.8833 0.333004 16.8958 0.698438C17.5869 4.58522 20.6387 7.63609 24.526 8.32594C24.8864 9.3233 25.1238 10.3781 25.2211 11.4716V13.7085C25.1209 14.8374 24.8712 15.9249 24.4911 16.9507C20.6525 17.6467 17.635 20.6464 16.9131 24.4756C15.5757 24.9606 14.1353 25.2258 12.6358 25.2258C11.0962 25.2258 9.61887 24.9462 8.2514 24.4362C7.52322 20.6614 4.56241 17.6998 0.788028 16.9703C0.278977 15.6041 0 14.1281 0 12.5901C0 11.0883 0.265968 9.64576 0.752391 8.30671C4.57601 7.58299 7.57109 4.56996 8.26912 0.737134C9.31276 0.349698 10.4204 0.0971814 11.5706 0ZM14.2527 14.2191L14.2213 14.2379L12.6106 20.2555L11.029 14.347L10.971 14.2501L10.8793 14.1952L4.96797 12.6129L10.9811 11.0034L11.0076 10.9591L12.6106 4.97037L14.2243 10.9992L20.2531 12.6129L14.2527 14.2191Z" fill="white"/>
<path d="M42.8979 21.0258C41.7336 21.0258 40.6872 20.8231 39.7551 20.4178C38.8229 20.0125 38.0565 19.4304 37.4559 18.6751C36.8554 17.9197 36.4722 17.0244 36.3101 15.9854L39.0734 15.5653C39.3092 16.5086 39.7956 17.2381 40.5288 17.7539C41.262 18.2697 42.1058 18.5277 43.0637 18.5277C43.6312 18.5277 44.1654 18.4392 44.6665 18.2624C45.1676 18.0855 45.5766 17.8276 45.8898 17.4886C46.203 17.1497 46.3577 16.7333 46.3577 16.2396C46.3577 16.0185 46.3209 15.8122 46.2472 15.6243C46.1735 15.4364 46.0666 15.2706 45.9229 15.1232C45.7792 14.9758 45.595 14.8395 45.3703 14.7179C45.1455 14.5963 44.8839 14.4931 44.5891 14.4047L40.4772 13.1888C40.1235 13.0857 39.744 12.9457 39.335 12.7725C38.9261 12.5993 38.5392 12.3598 38.1744 12.054C37.8096 11.7482 37.5112 11.3576 37.2791 10.8823C37.047 10.407 36.929 9.82119 36.929 9.12113C36.929 8.09684 37.1907 7.23466 37.7102 6.53829C38.2297 5.84192 38.9298 5.3224 39.8103 4.97605C40.6909 4.62971 41.6673 4.46022 42.7432 4.46759C43.8338 4.47496 44.8065 4.65919 45.6613 5.02396C46.5161 5.38873 47.2309 5.91931 47.8057 6.612C48.3805 7.30469 48.7858 8.14106 49.0216 9.12113L46.1587 9.61854C46.0408 9.05848 45.8161 8.5795 45.4808 8.18529C45.1455 7.79103 44.7365 7.4926 44.2538 7.28626C43.7712 7.07992 43.2553 6.9694 42.71 6.95466C42.1795 6.94728 41.6894 7.02464 41.2362 7.19044C40.7831 7.35624 40.4183 7.59575 40.1419 7.90524C39.8656 8.21473 39.7256 8.57582 39.7256 8.9885C39.7256 9.37907 39.8435 9.69593 40.0793 9.94277C40.3151 10.1896 40.6099 10.3849 40.9599 10.5286C41.3099 10.6723 41.6637 10.7939 42.0247 10.8897L44.8765 11.6855C45.2671 11.7887 45.7056 11.9287 46.1919 12.1056C46.6783 12.2824 47.1462 12.5293 47.5957 12.8462C48.0452 13.163 48.4174 13.5794 48.7084 14.0952C48.9995 14.6111 49.1432 15.2669 49.1432 16.0627C49.1432 16.8881 48.9737 17.6102 48.6311 18.2329C48.2884 18.8556 47.8241 19.3751 47.242 19.7878C46.6598 20.2004 45.9966 20.5099 45.2487 20.7163C44.5007 20.9226 43.7159 21.0258 42.8979 21.0258Z" fill="white"/>
<path d="M56.8137 21.0261C55.6199 21.0261 54.5772 20.7572 53.6855 20.2192C52.7939 19.6813 52.1049 18.937 51.6148 17.9901C51.1248 17.0432 50.8779 15.9563 50.8779 14.7256C50.8779 13.4729 51.1285 12.3749 51.6296 11.4317C52.1306 10.4885 52.827 9.75155 53.7187 9.22098C54.6103 8.69045 55.642 8.42514 56.8137 8.42514C58.0148 8.42514 59.0612 8.69413 59.9528 9.23204C60.8445 9.76998 61.5372 10.5106 62.0309 11.4575C62.5246 12.4044 62.7715 13.495 62.7715 14.7256C62.7715 15.9636 62.5246 17.0542 62.0272 18.0012C61.5298 18.9481 60.8335 19.6887 59.9418 20.2229C59.0502 20.7572 58.0074 21.0261 56.8137 21.0261ZM56.8137 18.5281C57.8748 18.5281 58.6633 18.1743 59.1791 17.4669C59.6949 16.7595 59.9528 15.8458 59.9528 14.7256C59.9528 13.5687 59.6913 12.6439 59.1681 11.9549C58.6449 11.2659 57.8601 10.9232 56.8137 10.9232C56.0989 10.9232 55.513 11.0817 55.0525 11.4022C54.5919 11.7228 54.2492 12.1686 54.0282 12.7397C53.8071 13.3108 53.6966 13.974 53.6966 14.7256C53.6966 15.8826 53.9619 16.8037 54.4888 17.4927C55.0156 18.1817 55.7894 18.5281 56.8137 18.5281Z" fill="white"/>
<path d="M65.4248 20.6944V4.4458H68.0887V20.6944H65.4248Z" fill="white"/>
<path d="M74.6318 20.6943L70.2988 8.75645H72.9628L75.9693 17.4113L78.9648 8.75645H81.6398L77.3068 20.6943H74.6318Z" fill="white"/>
<path d="M88.6149 21.0261C87.4064 21.0261 86.3452 20.7646 85.4315 20.2414C84.5177 19.7182 83.8066 18.9923 83.2945 18.0638C82.7823 17.1353 82.5244 16.0668 82.5244 14.8583C82.5244 13.554 82.7749 12.4192 83.276 11.4575C83.7771 10.4958 84.4735 9.75155 85.3652 9.22098C86.2568 8.69045 87.2885 8.42514 88.4602 8.42514C89.6982 8.42514 90.7519 8.71252 91.6178 9.291C92.4836 9.86948 93.1247 10.6874 93.5448 11.7412C93.9648 12.7949 94.1232 14.0366 94.0201 15.4662H91.3783V14.4935C91.3709 13.1966 91.1425 12.2497 90.693 11.6528C90.2434 11.0559 89.536 10.7574 88.5707 10.7574C87.4801 10.7574 86.6695 11.0927 86.1389 11.767C85.6083 12.4413 85.343 13.4287 85.343 14.7256C85.343 15.9342 85.6083 16.87 86.1389 17.5333C86.6695 18.1965 87.4432 18.5281 88.4602 18.5281C89.116 18.5281 89.6834 18.3807 90.1587 18.0896C90.634 17.7985 90.9988 17.3785 91.2567 16.8258L93.8874 17.6217C93.4306 18.6975 92.7268 19.5339 91.7725 20.1308C90.8182 20.7277 89.7645 21.0261 88.6149 21.0261ZM84.503 15.4662V13.4545H92.7158V15.4662H84.503Z" fill="white"/>
<path d="M96.4961 20.6941V8.75629H98.8505V11.6634L98.5631 11.2875C98.7105 10.8896 98.9095 10.5249 99.1563 10.197C99.4032 9.86904 99.6979 9.60005 100.044 9.38634C100.339 9.1874 100.667 9.02897 101.024 8.91473C101.382 8.80052 101.747 8.7305 102.122 8.7047C102.498 8.67894 102.863 8.69737 103.217 8.75629V11.2434C102.863 11.1402 102.458 11.107 101.997 11.1439C101.536 11.1807 101.12 11.3097 100.752 11.5307C100.383 11.7297 100.085 11.9839 99.8527 12.2934C99.6206 12.6029 99.4474 12.953 99.3368 13.3472C99.2263 13.7414 99.171 14.1688 99.171 14.6257V20.6941H96.4961Z" fill="white"/>
<path d="M112.048 21.026C110.457 21.026 109.094 20.676 107.959 19.9796C106.824 19.2833 105.954 18.3143 105.346 17.0689C104.738 15.8235 104.433 14.3792 104.433 12.7359C104.433 11.0926 104.738 9.6483 105.346 8.40293C105.954 7.15759 106.824 6.18486 107.959 5.48848C109.094 4.79215 110.457 4.4458 112.048 4.4458C113.883 4.4458 115.412 4.90267 116.636 5.82009C117.859 6.73754 118.717 7.97555 119.211 9.53041L116.525 10.271C116.216 9.23194 115.689 8.41767 114.945 7.83185C114.2 7.246 113.235 6.95494 112.048 6.95494C110.98 6.95494 110.092 7.19441 109.381 7.67342C108.67 8.1524 108.136 8.82298 107.778 9.68884C107.421 10.5547 107.237 11.5716 107.229 12.7359C107.229 13.9002 107.41 14.9135 107.767 15.7793C108.124 16.6452 108.659 17.3194 109.374 17.7984C110.088 18.2774 110.98 18.5169 112.048 18.5169C113.235 18.5169 114.2 18.2222 114.945 17.6326C115.689 17.0431 116.216 16.2325 116.525 15.2008L119.211 15.9414C118.717 17.4963 117.859 18.7306 116.636 19.648C115.412 20.5655 113.883 21.026 112.048 21.026Z" fill="white"/>
<path d="M126.916 21.0261C125.722 21.0261 124.679 20.7572 123.788 20.2192C122.896 19.6813 122.207 18.937 121.717 17.9901C121.227 17.0432 120.98 15.9563 120.98 14.7256C120.98 13.4729 121.231 12.3749 121.732 11.4317C122.233 10.4885 122.929 9.75155 123.821 9.22098C124.712 8.69045 125.744 8.42514 126.916 8.42514C128.117 8.42514 129.163 8.69413 130.055 9.23204C130.947 9.76998 131.639 10.5106 132.133 11.4575C132.627 12.4044 132.874 13.495 132.874 14.7256C132.874 15.9636 132.627 17.0542 132.129 18.0012C131.632 18.9481 130.936 19.6887 130.044 20.2229C129.152 20.7572 128.11 21.0261 126.916 21.0261ZM126.916 18.5281C127.977 18.5281 128.765 18.1743 129.281 17.4669C129.797 16.7595 130.055 15.8458 130.055 14.7256C130.055 13.5687 129.793 12.6439 129.27 11.9549C128.747 11.2659 127.962 10.9232 126.916 10.9232C126.201 10.9232 125.615 11.0817 125.155 11.4022C124.694 11.7228 124.351 12.1686 124.13 12.7397C123.909 13.3108 123.799 13.974 123.799 14.7256C123.799 15.8826 124.064 16.8037 124.591 17.4927C125.118 18.1817 125.891 18.5281 126.916 18.5281Z" fill="white"/>
<path d="M135.305 20.6941V8.75629H137.66V11.6634L137.372 11.2875C137.52 10.8896 137.719 10.5249 137.965 10.197C138.212 9.86904 138.507 9.60005 138.853 9.38634C139.148 9.1874 139.476 9.02897 139.833 8.91473C140.191 8.80052 140.556 8.7305 140.931 8.7047C141.307 8.67894 141.672 8.69737 142.026 8.75629V11.2434C141.672 11.1402 141.267 11.107 140.806 11.1439C140.346 11.1807 139.929 11.3097 139.561 11.5307C139.192 11.7297 138.894 11.9839 138.662 12.2934C138.43 12.6029 138.256 12.953 138.146 13.3472C138.035 13.7414 137.98 14.1688 137.98 14.6257V20.6941H135.305Z" fill="white"/>
<path d="M149.862 21.0261C148.698 21.0261 147.721 20.7498 146.933 20.1971C146.144 19.6445 145.551 18.8891 145.153 17.9348C144.755 16.9806 144.556 15.9121 144.556 14.7256C144.556 13.5245 144.755 12.4486 145.153 11.498C145.551 10.5474 146.137 9.79578 146.907 9.24678C147.677 8.69782 148.628 8.42514 149.762 8.42514C150.89 8.42514 151.87 8.69782 152.699 9.24678C153.528 9.79578 154.169 10.5437 154.626 11.4906C155.083 12.4376 155.311 13.5171 155.311 14.7256C155.311 15.9194 155.087 16.9916 154.637 17.9422C154.188 18.8928 153.554 19.6445 152.736 20.1971C151.918 20.7498 150.96 21.0261 149.862 21.0261ZM144.103 26.0002V8.75674H146.457V17.1353H146.789V26.0002H144.103ZM149.453 18.6386C150.146 18.6386 150.717 18.4654 151.166 18.1191C151.616 17.7727 151.951 17.3011 152.168 16.7079C152.386 16.1147 152.493 15.4552 152.493 14.7256C152.493 14.0035 152.382 13.3439 152.161 12.7508C151.94 12.1575 151.597 11.6859 151.133 11.3359C150.669 10.9859 150.079 10.8127 149.365 10.8127C148.687 10.8127 148.134 10.9748 147.706 11.3027C147.279 11.6307 146.966 12.0876 146.763 12.6734C146.561 13.2592 146.457 13.9445 146.457 14.7256C146.457 15.4994 146.561 16.181 146.763 16.7705C146.966 17.3601 147.286 17.8169 147.725 18.1449C148.163 18.4728 148.738 18.6386 149.453 18.6386Z" fill="white"/>
<path d="M157.743 20.6943V17.9641H160.474V20.6943H157.743Z" fill="white"/>
</svg>
