<svg width="22" height="22" viewBox="0 0 22 22" fill="none" xmlns="http://www.w3.org/2000/svg">
<path d="M11 22C17.0753 22 22 17.0753 22 11V3.3C22 2.42479 21.6523 1.58542 21.0335 0.966548C20.4146 0.347677 19.5752 0 18.7 0H11.55V4.8257C11.55 5.9268 11.6171 7.0675 12.1946 8.0047C12.6081 8.67636 13.1611 9.25125 13.8163 9.69034C14.4715 10.1294 15.2134 10.4225 15.9918 10.5496L16.2025 10.5836C16.2893 10.6133 16.3647 10.6694 16.4181 10.7441C16.4715 10.8187 16.5002 10.9082 16.5002 11C16.5002 11.0918 16.4715 11.1813 16.4181 11.2559C16.3647 11.3306 16.2893 11.3867 16.2025 11.4163L15.9918 11.4505C14.8545 11.6362 13.8043 12.1746 12.9894 12.9894C12.1746 13.8043 11.6363 14.8545 11.4505 15.9918L11.4164 16.2025C11.3867 16.2893 11.3306 16.3647 11.2559 16.4181C11.1813 16.4714 11.0918 16.5001 11 16.5001C10.9082 16.5001 10.8188 16.4714 10.7441 16.4181C10.6695 16.3647 10.6134 16.2893 10.5837 16.2025L10.5496 15.9918C10.4225 15.2134 10.1294 14.4715 9.69032 13.8163C9.25123 13.1611 8.67637 12.6081 8.00473 12.1946C7.06753 11.6171 5.92683 11.55 4.82573 11.55H0.0132263C0.300876 17.3695 5.10953 22 11 22Z" fill="#1A1C1E"/>
<path d="M0 10.4501H4.8257C5.9268 10.4501 7.0675 10.383 8.0047 9.80547C8.73731 9.35408 9.35401 8.73738 9.8054 8.00477C10.3829 7.06757 10.45 5.92687 10.45 4.82577V6.64739e-05H3.3C2.42479 6.64739e-05 1.58542 0.347744 0.966548 0.966614C0.347678 1.58548 0 2.42485 0 3.30007V10.4501Z" fill="#1A1C1E"/>
</svg>
