<svg width="25" height="24" viewBox="0 0 25 24" fill="none" xmlns="http://www.w3.org/2000/svg">
<g id="Business, Products/cash-fast-circle">
<g id="Group">
<path id="Path" d="M5.1665 9H3.6665" stroke="white" stroke-width="1.5" stroke-linecap="round" stroke-linejoin="round"/>
<path id="Path_2" d="M5.1665 15H3.6665" stroke="white" stroke-width="1.5" stroke-linecap="round" stroke-linejoin="round"/>
<path id="Path_3" d="M4.6665 12H2.6665" stroke="white" stroke-width="1.5" stroke-linecap="round" stroke-linejoin="round"/>
<path id="Path_4" d="M6.30273 5.63606C8.87672 3.06208 12.7478 2.29207 16.1108 3.6851C19.4739 5.07813 21.6667 8.35986 21.6667 12C21.6667 15.6402 19.4739 18.9219 16.1108 20.3149C12.7478 21.708 8.87672 20.938 6.30273 18.364" stroke="white" stroke-width="1.5" stroke-linecap="round" stroke-linejoin="round"/>
<path id="Path_5" d="M12.6665 7.49993V8.40877" stroke="white" stroke-width="1.5" stroke-linecap="round" stroke-linejoin="round"/>
<path id="Path_6" d="M10.4165 10.2265C10.548 9.10984 11.5472 8.30261 12.6665 8.40879" stroke="white" stroke-width="1.5" stroke-linecap="round" stroke-linejoin="round"/>
<path id="Path_7" d="M12.6665 16.5001V15.5912" stroke="white" stroke-width="1.5" stroke-linecap="round" stroke-linejoin="round"/>
<path id="Path_8" d="M14.9165 13.7734C14.7851 14.8901 13.7858 15.6973 12.6665 15.5911" stroke="white" stroke-width="1.5" stroke-linecap="round" stroke-linejoin="round"/>
<path id="Path_9" d="M14.8592 9.83003C14.5207 8.9254 13.6305 8.34845 12.6665 8.40887" stroke="white" stroke-width="1.5" stroke-linecap="round" stroke-linejoin="round"/>
<path id="Path_10" d="M10.4736 14.1699C10.8122 15.0745 11.7023 15.6515 12.6663 15.5911" stroke="white" stroke-width="1.5" stroke-linecap="round" stroke-linejoin="round"/>
<path id="Path_11" d="M10.4165 10.2266V10.2266C10.4165 10.9961 10.9597 11.6586 11.7143 11.8096L13.6187 12.1905C14.3733 12.3414 14.9165 13.0039 14.9165 13.7735V13.7735" stroke="white" stroke-width="1.5" stroke-linecap="round" stroke-linejoin="round"/>
</g>
</g>
</svg>
