<svg width="24" height="24" viewBox="0 0 24 24" fill="none" xmlns="http://www.w3.org/2000/svg">
<path d="M15.8972 6.80556C15.2184 5.21645 14.0118 3.91047 12.4812 3.10841C10.9506 2.30634 9.19006 2.05739 7.49712 2.40366C5.80418 2.74992 4.28274 3.67014 3.19001 5.00876C2.09727 6.34737 1.5003 8.02225 1.5 9.75024V15.7502C1.5 16.1481 1.65804 16.5296 1.93934 16.8109C2.22064 17.0922 2.60218 17.2502 3 17.2502H8.12531C8.71058 18.5868 9.67231 19.724 10.8931 20.5231C12.1139 21.3222 13.5409 21.7486 15 21.7502H21C21.3978 21.7502 21.7794 21.5922 22.0607 21.3109C22.342 21.0296 22.5 20.6481 22.5 20.2502V14.2502C22.4996 12.4167 21.8277 10.6469 20.6111 9.27516C19.3945 7.90344 17.7175 7.02489 15.8972 6.80556ZM3 9.75024C3 8.56356 3.35189 7.40352 4.01118 6.41682C4.67047 5.43013 5.60754 4.66109 6.7039 4.20697C7.80026 3.75284 9.00666 3.63402 10.1705 3.86553C11.3344 4.09704 12.4035 4.66849 13.2426 5.5076C14.0818 6.34672 14.6532 7.41582 14.8847 8.5797C15.1162 9.74359 14.9974 10.95 14.5433 12.0463C14.0892 13.1427 13.3201 14.0798 12.3334 14.7391C11.3467 15.3983 10.1867 15.7502 9 15.7502H3V9.75024ZM21 20.2502H15C13.939 20.249 12.8973 19.9671 11.9805 19.4332C11.0637 18.8992 10.3045 18.1322 9.78 17.2099C10.8072 17.1033 11.8013 16.7856 12.6999 16.2765C13.5985 15.7675 14.3822 15.0782 15.0018 14.252C15.6213 13.4257 16.0634 12.4803 16.3003 11.4751C16.5371 10.4698 16.5636 9.42651 16.3781 8.41056C17.6937 8.72103 18.8659 9.46662 19.7048 10.5265C20.5436 11.5864 21 12.8985 21 14.2502V20.2502Z" fill="white"/>
</svg>
