<svg width="20" height="18" viewBox="0 0 20 18" fill="none" xmlns="http://www.w3.org/2000/svg">
<path d="M19.4613 1.65866C19.3714 1.58866 19.2668 1.54004 19.1554 1.51648C19.0439 1.49293 18.9286 1.49507 18.8181 1.52273L13.0872 2.95523L7.33563 0.0789766C7.17537 -0.000954881 6.99181 -0.0209074 6.81812 0.0227268L0.818125 1.52273C0.65587 1.56328 0.511827 1.65691 0.408889 1.78873C0.305951 1.92054 0.250025 2.08298 0.25 2.25023V15.7502C0.250017 15.8642 0.276005 15.9767 0.325991 16.0791C0.375976 16.1815 0.448644 16.2712 0.538475 16.3413C0.628306 16.4114 0.732937 16.4602 0.844422 16.4838C0.955907 16.5074 1.07131 16.5054 1.18187 16.4777L6.91281 15.0452L12.6644 17.9215C12.7688 17.973 12.8836 17.9999 13 18.0002C13.0613 18.0002 13.1224 17.9926 13.1819 17.9777L19.1819 16.4777C19.3441 16.4372 19.4882 16.3435 19.5911 16.2117C19.694 16.0799 19.75 15.9175 19.75 15.7502V2.25023C19.75 2.13616 19.724 2.02358 19.674 1.92107C19.624 1.81856 19.5512 1.72882 19.4613 1.65866ZM7.75 1.96335L12.25 4.21335V16.0371L7.75 13.7871V1.96335ZM1.75 2.83616L6.25 1.71116V13.6643L1.75 14.7893V2.83616ZM18.25 15.1643L13.75 16.2893V4.33616L18.25 3.21116V15.1643Z" fill="white"/>
</svg>
