<svg width="19" height="19" viewBox="0 0 19 19" fill="none" xmlns="http://www.w3.org/2000/svg">
<path d="M17.8472 12.8559L13.4306 10.8768L13.4184 10.8712C13.1892 10.7731 12.939 10.7338 12.6907 10.7567C12.4424 10.7796 12.2037 10.8641 11.9963 11.0024C11.9718 11.0186 11.9484 11.0361 11.9259 11.0549L9.64407 13.0002C8.19845 12.298 6.70595 10.8168 6.00376 9.38993L7.95188 7.07336C7.97063 7.04992 7.98845 7.02649 8.00532 7.00118C8.14072 6.79427 8.22287 6.5571 8.24446 6.31077C8.26605 6.06445 8.22641 5.8166 8.12907 5.5893V5.57805L6.14438 1.15399C6.0157 0.857048 5.79444 0.609689 5.51362 0.448836C5.2328 0.287983 4.9075 0.222263 4.58626 0.261488C3.31592 0.42865 2.14986 1.05252 1.30588 2.01658C0.461903 2.98063 -0.00228837 4.21895 8.4831e-06 5.50024C8.4831e-06 12.944 6.05626 19.0002 13.5 19.0002C14.7813 19.0025 16.0196 18.5383 16.9837 17.6944C17.9477 16.8504 18.5716 15.6843 18.7388 14.414C18.7781 14.0929 18.7125 13.7676 18.5518 13.4868C18.3911 13.206 18.144 12.9847 17.8472 12.8559ZM13.5 17.5002C10.3185 17.4968 7.26825 16.2314 5.01856 13.9817C2.76888 11.732 1.50348 8.68177 1.50001 5.50024C1.49648 4.58476 1.82631 3.6993 2.42789 3.00921C3.02947 2.31913 3.86167 1.87161 4.76907 1.75024C4.7687 1.75398 4.7687 1.75775 4.76907 1.76149L6.73782 6.16774L4.80001 8.48711C4.78034 8.50974 4.76247 8.53388 4.74657 8.5593C4.60549 8.77579 4.52273 9.02504 4.5063 9.28292C4.48988 9.5408 4.54035 9.79854 4.65282 10.0312C5.5022 11.7684 7.25251 13.5055 9.00845 14.354C9.24279 14.4654 9.50203 14.5141 9.76083 14.4954C10.0196 14.4767 10.2692 14.3911 10.485 14.2471C10.5091 14.2309 10.5322 14.2134 10.5544 14.1946L12.8334 12.2502L17.2397 14.2237C17.2397 14.2237 17.2472 14.2237 17.25 14.2237C17.1301 15.1324 16.6833 15.9662 15.9931 16.5693C15.3028 17.1724 14.4166 17.5033 13.5 17.5002Z" fill="white"/>
</svg>
