<svg width="24" height="24" viewBox="0 0 24 24" fill="none" xmlns="http://www.w3.org/2000/svg">
<g id="Business, Products/Promotion, Rocket">
<g id="Group">
<g id="Group_2">
<path id="Path" d="M12.9401 11.0601L5.87012 18.1301" stroke="url(#paint0_linear_5091_6843)" stroke-width="1.5" stroke-linecap="round" stroke-linejoin="round"/>
<path id="Path_2" d="M6.63295 12.999L3.16995 12.181C2.78895 12.091 2.65495 11.618 2.93095 11.341L5.68495 8.58697C5.86995 8.40197 6.12095 8.29597 6.38395 8.29397L9.48895 8.26697" stroke="url(#paint1_linear_5091_6843)" stroke-width="1.5" stroke-linecap="round" stroke-linejoin="round"/>
<path id="Path_3" fill-rule="evenodd" clip-rule="evenodd" d="M19.8791 8.97499L20.6871 5.08699C20.9071 4.02899 19.9711 3.09299 18.9131 3.31299L15.0251 4.12099C13.8801 4.35899 12.8301 4.92599 12.0041 5.75299L8.81407 8.94199C7.59707 10.159 6.80507 11.737 6.55507 13.44L6.54407 13.513C6.38607 14.6 6.75007 15.697 7.52607 16.474V16.474C8.30207 17.25 9.40007 17.614 10.4871 17.455L10.5601 17.444C12.2631 17.195 13.8411 16.402 15.0581 15.185L18.2471 11.996C19.0741 11.17 19.6411 10.12 19.8791 8.97499V8.97499Z" stroke="url(#paint2_linear_5091_6843)" stroke-width="1.5" stroke-linecap="round" stroke-linejoin="round"/>
<path id="Path_4" d="M13.3999 4.71399C15.7109 6.28999 17.7099 8.28899 19.2859 10.6" stroke="url(#paint3_linear_5091_6843)" stroke-width="1.5" stroke-linecap="round" stroke-linejoin="round"/>
<path id="Path_5" d="M11 17.367L11.818 20.83C11.908 21.211 12.381 21.345 12.658 21.069L15.412 18.315C15.597 18.13 15.703 17.879 15.705 17.616L15.732 14.511" stroke="url(#paint4_linear_5091_6843)" stroke-width="1.5" stroke-linecap="round" stroke-linejoin="round"/>
</g>
</g>
</g>
<defs>
<linearGradient id="paint0_linear_5091_6843" x1="13.8239" y1="17.6145" x2="3.36616" y2="15.3315" gradientUnits="userSpaceOnUse">
<stop stop-color="#1146F2"/>
<stop offset="1" stop-color="#873AE3"/>
</linearGradient>
<linearGradient id="paint1_linear_5091_6843" x1="10.327" y1="12.6539" x2="0.844747" y2="9.72106" gradientUnits="userSpaceOnUse">
<stop stop-color="#1146F2"/>
<stop offset="1" stop-color="#873AE3"/>
</linearGradient>
<linearGradient id="paint2_linear_5091_6843" x1="22.4959" y1="16.4554" x2="1.47461" y2="11.8661" gradientUnits="userSpaceOnUse">
<stop stop-color="#1146F2"/>
<stop offset="1" stop-color="#873AE3"/>
</linearGradient>
<linearGradient id="paint3_linear_5091_6843" x1="20.0217" y1="10.1708" x2="11.3153" y2="8.27011" gradientUnits="userSpaceOnUse">
<stop stop-color="#1146F2"/>
<stop offset="1" stop-color="#873AE3"/>
</linearGradient>
<linearGradient id="paint4_linear_5091_6843" x1="16.3235" y1="20.7264" x2="9.16056" y2="19.6227" gradientUnits="userSpaceOnUse">
<stop stop-color="#1146F2"/>
<stop offset="1" stop-color="#873AE3"/>
</linearGradient>
</defs>
</svg>
