<svg width="24" height="24" viewBox="0 0 24 24" fill="none" xmlns="http://www.w3.org/2000/svg">
<g id="Business, Products/target-goal">
<g id="Group">
<path id="Path" d="M14.0411 9.95911L11.53 12.4702" stroke="url(#paint0_linear_5091_6857)" stroke-width="1.5" stroke-linecap="round" stroke-linejoin="round"/>
<path id="Path_2" fill-rule="evenodd" clip-rule="evenodd" d="M14.001 5.99752V9.99918H18.0026L22.0043 5.99752L19.3362 4.66396L18.0026 1.99585L14.001 5.99752Z" stroke="url(#paint1_linear_5091_6857)" stroke-width="1.5" stroke-linecap="round" stroke-linejoin="round"/>
<path id="Path_3" d="M10.9997 3.97168C6.43621 4.25177 2.90652 8.08256 3.00011 12.6537C3.09369 17.2248 6.77721 20.9079 11.3484 21.001C15.9195 21.0941 19.7499 17.564 20.0295 13.0004" stroke="url(#paint2_linear_5091_6857)" stroke-width="1.5" stroke-linecap="round" stroke-linejoin="round"/>
<path id="Path_4" d="M16.2119 13.0004C15.943 15.4635 13.8177 17.3009 11.3416 17.2111C8.86543 17.1213 6.87886 15.1347 6.78904 12.6586C6.69923 10.1825 8.53666 8.05718 10.9998 7.78821" stroke="url(#paint3_linear_5091_6857)" stroke-width="1.5" stroke-linecap="round" stroke-linejoin="round"/>
</g>
</g>
<defs>
<linearGradient id="paint0_linear_5091_6857" x1="14.355" y1="12.2871" x2="10.6407" y2="11.4762" gradientUnits="userSpaceOnUse">
<stop stop-color="#1146F2"/>
<stop offset="1" stop-color="#873AE3"/>
</linearGradient>
<linearGradient id="paint1_linear_5091_6857" x1="23.0047" y1="9.41561" x2="11.1665" y2="6.8312" gradientUnits="userSpaceOnUse">
<stop stop-color="#1146F2"/>
<stop offset="1" stop-color="#873AE3"/>
</linearGradient>
<linearGradient id="paint2_linear_5091_6857" x1="22.1584" y1="19.761" x2="-3.03358" y2="14.2613" gradientUnits="userSpaceOnUse">
<stop stop-color="#1146F2"/>
<stop offset="1" stop-color="#873AE3"/>
</linearGradient>
<linearGradient id="paint3_linear_5091_6857" x1="17.3902" y1="16.5269" x2="3.44749" y2="13.4831" gradientUnits="userSpaceOnUse">
<stop stop-color="#1146F2"/>
<stop offset="1" stop-color="#873AE3"/>
</linearGradient>
</defs>
</svg>
